<?xml version="1.0" encoding="UTF-8" ?>
<!DOCTYPE svg PUBLIC "-//W3C//DTD SVG 1.1//EN" "http://www.w3.org/Graphics/SVG/1.1/DTD/svg11.dtd">
<svg width="666pt" height="666pt" viewBox="0 0 666 666" version="1.1" xmlns="http://www.w3.org/2000/svg">
<g id="#f7f7f7ff">
</g>
<g id="#8836b6ff">
<path fill="#8836b6" opacity="1.00" d=" M 226.98 9.99 C 225.96 5.80 234.04 5.80 233.02 9.99 C 233.00 82.65 233.00 155.31 233.02 227.98 C 299.01 228.00 364.99 228.00 430.98 227.98 C 430.99 155.31 431.00 82.65 430.98 9.99 C 429.97 5.81 438.03 5.79 437.02 9.98 C 437.00 82.65 437.01 155.31 437.02 227.98 C 509.68 228.00 582.35 228.00 655.02 227.98 C 659.20 226.97 659.20 235.03 655.01 234.02 C 582.35 234.00 509.69 234.00 437.02 234.02 C 437.00 300.01 437.01 365.99 437.02 431.98 C 509.68 432.00 582.35 432.00 655.02 431.98 C 659.19 430.97 659.20 439.03 655.01 438.02 C 582.35 438.00 509.68 438.00 437.02 438.02 C 436.98 510.99 437.06 583.97 436.98 656.94 C 436.99 659.94 431.01 659.94 431.02 656.94 C 430.94 583.97 431.03 511.00 430.98 438.02 C 364.99 438.00 299.01 438.00 233.02 438.02 C 233.00 510.69 233.00 583.35 233.02 656.01 C 234.03 660.19 225.97 660.20 226.98 656.02 C 227.00 583.35 227.00 510.69 226.98 438.02 C 154.31 438.00 81.65 438.00 8.98 438.02 C 4.80 439.03 4.80 430.97 8.98 431.98 C 81.65 432.00 154.31 432.00 226.98 431.98 C 227.00 365.99 226.99 300.01 226.98 234.02 C 154.32 234.00 81.65 234.00 8.99 234.02 C 4.80 235.03 4.80 226.97 8.98 227.98 C 81.65 228.00 154.32 227.99 226.98 227.98 C 226.99 155.31 227.00 82.65 226.98 9.99 M 233.02 234.02 C 233.00 300.01 233.01 365.99 233.02 431.98 C 299.01 431.99 364.99 432.00 430.98 431.98 C 431.00 365.99 431.00 300.01 430.98 234.02 C 364.99 234.00 299.01 234.00 233.02 234.02 Z" />
</g>
</svg>
