<?xml version="1.0" encoding="UTF-8" ?>
<!DOCTYPE svg PUBLIC "-//W3C//DTD SVG 1.1//EN" "http://www.w3.org/Graphics/SVG/1.1/DTD/svg11.dtd">
<svg width="685pt" height="685pt" viewBox="0 0 685 685" version="1.1" xmlns="http://www.w3.org/2000/svg">
<g id="#8836b6ff">
<path fill="#8836b6" opacity="1.00" d=" M 239.85 22.80 C 311.19 -3.28 391.57 -3.67 463.16 21.73 C 520.80 41.94 572.47 78.61 610.91 126.05 C 653.71 178.56 679.87 244.46 684.24 312.09 C 684.30 313.65 684.47 315.21 685.00 316.69 L 685.00 353.20 C 684.47 354.71 684.30 356.31 684.24 357.91 C 678.83 444.27 637.29 527.35 572.21 584.23 C 558.56 596.44 543.45 606.82 528.87 617.85 C 460.53 668.49 372.17 690.74 287.97 678.89 C 223.50 670.29 161.93 641.85 113.34 598.66 C 65.49 556.52 30.12 500.35 13.14 438.87 C -6.40 368.94 -2.16 292.57 25.33 225.34 C 48.95 166.87 89.84 115.78 141.09 79.14 C 170.80 55.36 203.94 35.63 239.85 22.80 M 315.30 178.43 C 288.84 181.22 262.76 189.92 240.56 204.69 C 218.91 222.83 202.35 246.84 192.12 273.11 C 177.76 310.07 176.84 352.03 189.49 389.59 C 208.02 446.29 257.99 491.23 316.40 503.46 C 360.62 513.12 408.86 504.78 446.55 479.48 C 479.45 451.37 500.53 409.99 504.64 366.95 C 508.18 332.06 500.67 296.14 483.39 265.62 C 468.54 239.19 446.61 216.79 420.48 201.41 C 389.09 182.73 351.62 174.59 315.30 178.43 Z" />
</g>
</svg>
