<?xml version="1.0" encoding="UTF-8" ?>
<!DOCTYPE svg PUBLIC "-//W3C//DTD SVG 1.1//EN" "http://www.w3.org/Graphics/SVG/1.1/DTD/svg11.dtd">
<svg width="625pt" height="625pt" viewBox="0 0 625 625" version="1.1" xmlns="http://www.w3.org/2000/svg">
<g id="#8836b6ff">
<path fill="#8836b6" opacity="1.00" d=" M 104.77 5.75 C 111.69 -0.67 122.65 1.93 128.68 8.29 C 191.60 70.70 253.83 133.96 317.01 196.03 C 379.69 134.07 441.60 71.28 504.28 9.29 C 510.92 2.07 523.36 0.17 530.78 7.23 C 558.26 34.74 585.82 62.19 613.25 89.75 C 619.89 96.90 616.85 108.17 610.19 114.18 C 548.30 176.64 485.84 238.55 423.74 300.80 C 422.83 301.60 422.83 302.40 423.74 303.22 C 485.19 364.45 546.43 425.89 607.83 487.18 C 614.91 493.72 616.96 505.76 610.35 513.33 C 577.11 546.76 543.89 580.24 510.22 613.23 C 503.51 619.36 492.96 616.96 486.98 611.01 C 424.59 548.98 362.66 486.45 300.14 424.56 C 237.37 486.63 175.39 549.56 112.53 611.56 C 106.08 618.38 94.41 620.37 86.94 614.07 C 59.40 586.61 31.88 559.10 4.39 531.58 C 2.31 529.65 1.38 526.90 0.00 524.50 L 0.00 517.62 C 1.83 513.49 3.90 509.38 7.25 506.24 C 69.19 443.51 132.03 381.62 194.03 318.96 C 193.75 318.49 193.18 317.55 192.90 317.09 C 131.07 255.25 69.20 193.46 7.38 131.61 C 0.55 125.33 -1.61 113.93 4.34 106.36 C 37.49 72.51 71.09 39.08 104.77 5.75 Z" />
</g>
</svg>
